<?xml version="1.0" encoding="utf-8"?>
<!-- Generator: Adobe Illustrator 18.0.0, SVG Export Plug-In . SVG Version: 6.00 Build 0)  -->
<!DOCTYPE svg PUBLIC "-//W3C//DTD SVG 1.1//EN" "http://www.w3.org/Graphics/SVG/1.1/DTD/svg11.dtd">
<svg version="1.1" id="Icon_Set" xmlns="http://www.w3.org/2000/svg" xmlns:xlink="http://www.w3.org/1999/xlink" x="0px" y="0px"
	 viewBox="0 0 256 256" style="enable-background:new 0 0 256 256;" xml:space="preserve">
<style type="text/css">
	.st0{fill:#4C4372;}
	.st1{fill:#F0C48A;}
	.st2{fill:#FD919E;}
	.st3{fill:#D3E6F8;}
	.st4{fill:#A4CFF2;}
	.st5{fill:#FFFFFF;}
	.st6{fill:#7BABF1;}
	.st7{fill:#E8677D;}
</style>
<g>
	<g>
		<g>
			<circle class="st1" cx="128" cy="128" r="103.5"/>
		</g>
	</g>
	<g>
		<rect x="81.779" y="43.716" class="st2" width="23.581" height="23.582"/>
	</g>
	<g>
		<rect x="116.21" y="57.531" class="st2" width="23.581" height="23.581"/>
	</g>
	<g>
		<rect x="98.097" y="91.23" class="st2" width="23.581" height="23.581"/>
	</g>
	<g>
		<rect x="152.601" y="52.827" class="st2" width="23.581" height="23.581"/>
	</g>
	<g>
		<path class="st0" d="M105.36,70.298H81.779c-1.657,0-3-1.343-3-3V43.716c0-1.657,1.343-3,3-3h23.581c1.657,0,3,1.343,3,3v23.582
			C108.36,68.955,107.017,70.298,105.36,70.298z M84.779,64.298h17.581V46.716H84.779V64.298z"/>
	</g>
	<g>
		<path class="st0" d="M139.791,84.112h-23.581c-1.657,0-3-1.343-3-3V57.531c0-1.657,1.343-3,3-3h23.581c1.657,0,3,1.343,3,3v23.581
			C142.791,82.769,141.447,84.112,139.791,84.112z M119.209,78.112h17.581V60.531h-17.581V78.112z"/>
	</g>
	<g>
		<path class="st0" d="M121.679,117.811H98.097c-1.657,0-3-1.343-3-3V91.229c0-1.657,1.343-3,3-3h23.582c1.657,0,3,1.343,3,3v23.581
			C124.679,116.467,123.335,117.811,121.679,117.811z M101.097,111.811h17.582V94.229h-17.582V111.811z"/>
	</g>
	<g>
		<path class="st0" d="M176.182,79.408h-23.581c-1.657,0-3-1.343-3-3V52.827c0-1.657,1.343-3,3-3h23.581c1.657,0,3,1.343,3,3v23.581
			C179.182,78.065,177.839,79.408,176.182,79.408z M155.601,73.408h17.581V55.827h-17.581V73.408z"/>
	</g>
	<g>
		<polygon class="st3" points="143.143,161.075 112.857,161.075 75.126,108.148 180.874,108.148 		"/>
	</g>
	<g>
		<polygon class="st4" points="131.691,161.075 159.514,108.148 180.874,108.148 143.143,161.075 		"/>
	</g>
	<g>
		<rect x="112.857" y="161.075" class="st4" width="30.285" height="59.208"/>
	</g>
	<g>
		<rect x="131.691" y="161.075" class="st6" width="11.451" height="59.208"/>
	</g>
	<g>
		<path class="st0" d="M143.143,164.075h-30.285c-0.97,0-1.88-0.469-2.443-1.258L72.683,109.89
			c-0.652-0.915-0.738-2.117-0.224-3.116c0.515-0.999,1.544-1.626,2.667-1.626h105.748c1.123,0,2.152,0.627,2.667,1.626
			c0.514,0.999,0.428,2.201-0.224,3.116l-37.731,52.926C145.022,163.606,144.112,164.075,143.143,164.075z M114.403,158.075h27.194
			l33.454-46.926H80.949L114.403,158.075z"/>
	</g>
	<g>
		<path class="st0" d="M143.143,223.283h-30.285c-1.657,0-3-1.343-3-3v-59.208c0-1.657,1.343-3,3-3h30.285c1.657,0,3,1.343,3,3
			v59.208C146.143,221.94,144.799,223.283,143.143,223.283z M115.857,217.283h24.285v-53.208h-24.285V217.283z"/>
	</g>
</g>
</svg>
