<svg version="1.1" id="Layer_1" xmlns="http://www.w3.org/2000/svg" xmlns:xlink="http://www.w3.org/1999/xlink" x="0px" y="0px"
	 width="100%" viewBox="0 0 250 91" enable-background="new 0 0 250 91" xml:space="preserve">
<path fill="#24282C" opacity="1.000000" stroke="none" 
	d="
M251.000000,78.000000 
	C251.000000,82.663658 251.000000,87.327316 251.000000,91.993225 
	C167.723389,91.995483 84.446785,91.995483 1.085090,91.995483 
	C1.085090,61.743160 1.085090,31.486000 1.085090,1.114421 
	C84.333244,1.114421 167.666595,1.114421 250.999969,1.112050 
	C251.000000,25.427347 251.000000,49.745014 250.786041,74.952919 
	C245.715546,69.998039 240.834244,68.645630 235.485779,71.113335 
	C235.485779,77.185219 235.485779,82.914375 235.485779,88.630051 
	C237.206985,88.630051 239.523209,88.630051 241.712585,88.630051 
	C241.029648,86.517715 240.453262,84.734947 239.770309,82.622566 
	C244.614395,82.490585 248.379318,81.941742 249.605820,77.234970 
	C250.070557,77.489975 250.535278,77.744987 251.000000,78.000000 
M222.484772,54.998039 
	C225.809357,54.998039 229.133926,54.998039 232.936737,54.998039 
	C228.256805,39.066547 223.730652,23.463945 218.982132,7.929309 
	C218.664124,6.888938 216.686417,5.750300 215.440262,5.702111 
	C209.450806,5.470498 203.442566,5.470845 197.453094,5.702351 
	C196.214432,5.750229 194.251602,6.894497 193.932816,7.934909 
	C189.175095,23.463091 184.637695,39.058781 180.016068,54.748093 
	C187.050690,54.748093 193.661499,54.748093 200.330338,54.748093 
	C200.954529,52.366741 201.522461,50.200008 202.054214,48.171345 
	C205.306808,48.171345 208.097366,48.171345 210.965179,48.171345 
	C211.503952,50.424725 211.999725,52.498211 212.597443,54.998039 
	C215.590576,54.998039 218.554901,54.998039 222.484772,54.998039 
M113.590393,54.997871 
	C117.658707,54.997871 121.727020,54.997871 126.161636,54.997871 
	C121.523911,39.092007 117.145134,23.796616 112.484306,8.587661 
	C112.088341,7.295589 109.856483,5.822413 108.397346,5.732368 
	C102.927864,5.394835 97.417244,5.772926 91.937790,5.529079 
	C88.759949,5.387659 87.313354,6.337486 86.417595,9.557718 
	C82.549858,23.462132 78.346054,37.272900 74.307465,51.130253 
	C73.968231,52.294266 73.947701,53.551159 73.747421,54.992977 
	C79.979767,54.992977 85.796089,55.000580 91.612328,54.982269 
	C92.257706,54.980240 92.902634,54.830482 93.609718,54.741432 
	C94.161674,52.447571 94.686897,50.264755 95.200195,48.131538 
	C98.376587,48.131538 101.168106,48.131538 104.115448,48.131538 
	C104.731133,50.449203 105.315681,52.649685 105.939461,54.997871 
	C108.318405,54.997871 110.474083,54.997871 113.590393,54.997871 
M132.359512,19.073793 
	C127.572052,31.625729 130.281830,43.192497 139.731750,50.542480 
	C148.986496,57.740658 163.239700,57.928783 172.798599,50.798790 
	C174.278275,49.695103 176.080658,47.912308 176.212616,46.317684 
	C176.644760,41.095657 176.374893,35.815540 176.374893,30.459015 
	C170.453674,30.459015 165.204620,30.459015 159.784561,30.459015 
	C159.588577,33.309464 159.410339,35.901737 159.209641,38.820690 
	C154.932465,38.689442 151.087112,37.496365 150.431992,33.472626 
	C149.941299,30.458742 150.675781,26.072933 152.656235,24.064283 
	C157.304886,19.349426 162.473495,22.635792 167.434525,25.371346 
	C170.230820,20.941278 172.932846,16.660561 175.572266,12.479017 
	C163.153366,-0.428600 141.522125,2.783964 132.359512,19.073793 
M70.922165,41.208057 
	C71.435219,32.634647 66.205727,28.236662 59.223644,25.105738 
	C56.676510,23.963545 54.139618,22.798517 50.637043,21.207331 
	C56.650627,17.008278 60.226818,21.237511 64.261063,22.328806 
	C66.404953,18.918028 68.419121,15.713648 70.386818,12.583179 
	C63.091259,4.043720 48.063824,1.977105 38.778568,8.041812 
	C28.819359,14.546716 29.047785,27.200634 39.321373,33.365837 
	C41.724510,34.807964 44.492218,35.636147 46.927689,37.033508 
	C48.157906,37.739349 49.020451,39.086029 50.049236,40.142952 
	C48.568855,40.544659 46.944931,41.545609 45.635883,41.232044 
	C42.163700,40.400341 38.827538,39.000748 35.205803,37.746956 
	C33.241051,40.873104 31.150969,44.198662 28.989288,47.638142 
	C35.363853,54.077450 43.034992,56.098579 51.457973,55.982540 
	C61.527462,55.843830 68.102043,51.056156 70.922165,41.208057 
M5.289037,86.986633 
	C6.297903,89.543388 6.489751,89.583557 10.930853,88.592758 
	C10.496622,84.979576 10.074368,81.466042 9.652113,77.952499 
	C9.995356,77.900063 10.338598,77.847618 10.681840,77.795174 
	C12.559838,80.919136 14.437836,84.043106 16.834846,88.030418 
	C19.334763,83.832771 21.206604,80.689735 23.078447,77.546692 
	C23.490850,77.686577 23.903255,77.826462 24.315660,77.966347 
	C23.648258,81.551231 22.980854,85.136116 22.323004,88.669678 
	C24.057585,88.669678 26.409237,88.669678 27.864162,88.669678 
	C27.864162,82.484695 27.864162,76.660706 27.864162,70.369789 
	C19.559980,69.144699 21.229467,78.879105 16.480978,81.915840 
	C15.079038,79.364830 13.451746,76.882225 12.303425,74.194946 
	C10.817982,70.718750 8.717566,69.313644 5.025751,70.886559 
	C7.683078,76.035179 7.167689,81.228134 5.289037,86.986633 
M225.480515,70.289497 
	C223.982956,70.406876 222.485413,70.524254 222.236038,70.543800 
	C222.500656,74.894836 223.145721,78.487251 222.730698,81.952713 
	C222.551819,83.446419 220.214035,85.682304 218.791443,85.732780 
	C217.481644,85.779251 215.062134,83.443764 214.925583,81.989136 
	C214.581131,78.319878 215.247467,74.555740 215.516998,70.711906 
	C213.889954,70.711906 211.568008,70.711906 210.243362,70.711906 
	C210.514847,74.500549 210.785110,77.895760 210.995392,81.294678 
	C211.308716,86.359154 214.001984,89.119026 218.717651,89.145370 
	C223.340134,89.171196 225.844727,86.740486 226.476303,81.888649 
	C226.927216,78.424690 227.665909,74.997986 228.103851,71.532890 
	C228.145660,71.202118 226.959824,70.716179 225.480515,70.289497 
M163.959351,78.605286 
	C163.599701,81.983826 163.240067,85.362366 162.878967,88.754562 
	C164.612534,88.754562 166.868561,88.754562 169.037521,88.754562 
	C168.428391,86.480133 167.875931,84.417328 167.323486,82.354523 
	C167.872345,82.102051 168.421219,81.849579 168.970093,81.597099 
	C170.280212,83.352547 171.363068,85.364906 172.969254,86.785652 
	C174.361725,88.017349 176.347290,88.578568 178.070709,89.436127 
	C178.275574,89.028595 178.480423,88.621056 178.685287,88.213524 
	C176.805161,86.015778 174.925049,83.818039 173.044922,81.620293 
	C173.568375,81.625740 174.091812,81.631187 174.615265,81.636635 
	C175.060165,78.839188 176.845718,75.157219 175.694733,73.412682 
	C172.441147,68.481255 166.962585,70.722847 162.420303,70.424629 
	C163.014938,73.233780 163.487152,75.464508 163.959351,78.605286 
M190.349960,88.674980 
	C197.625046,89.702576 202.009293,87.300316 202.995529,81.746078 
	C203.916794,76.557854 201.514114,72.277466 196.807220,70.721527 
	C192.282257,69.225716 187.374985,71.136490 185.362213,75.177910 
	C182.977463,79.966240 184.600494,84.935204 190.349960,88.674980 
M88.863228,70.244598 
	C82.704277,72.281830 80.359146,75.484154 80.955582,81.042656 
	C81.425018,85.417564 84.680862,88.647110 89.057343,89.078987 
	C94.855644,89.651176 99.206268,86.148659 99.716766,80.497490 
	C100.240761,74.696899 96.605682,70.966164 88.863228,70.244598 
M150.288742,73.252281 
	C151.855270,74.152969 153.421799,75.053658 154.988327,75.954338 
	C155.402802,74.064812 154.784180,71.242302 154.131760,71.234474 
	C150.340988,71.188980 146.124771,70.906616 142.852539,72.426743 
	C138.815552,74.302124 138.249435,80.676315 140.724442,84.817230 
	C143.138397,88.855995 148.869492,90.532372 153.462830,88.424713 
	C157.795151,86.436821 155.457047,82.974808 155.548676,79.697502 
	C153.339828,79.798409 151.514282,79.881798 149.838348,79.958351 
	C150.797821,82.238113 151.490952,83.885048 152.184097,85.531975 
	C149.977402,85.453751 146.968460,86.226593 145.760956,85.088364 
	C144.141342,83.561646 143.191315,80.535423 143.261154,78.191917 
	C143.364059,74.738091 146.083130,73.202232 150.288742,73.252281 
M107.768509,83.111565 
	C107.231102,84.887344 106.693695,86.663124 106.077568,88.699020 
	C108.320656,88.699020 110.611305,88.699020 112.766190,88.699020 
	C112.109001,86.416199 111.516174,84.356926 110.923347,82.297653 
	C111.470604,82.029442 112.017860,81.761223 112.565117,81.493011 
	C113.866722,83.201180 115.192886,84.891281 116.464401,86.621567 
	C118.588371,89.511894 118.573662,89.522705 122.195793,87.945679 
	C120.418579,85.874855 118.627495,83.787865 116.836403,81.700867 
	C117.370369,81.673500 117.904343,81.646126 118.438309,81.618759 
	C118.783485,78.707672 120.473961,74.824463 119.210411,73.075874 
	C115.991348,68.621124 110.717964,70.527618 106.835030,70.566422 
	C107.171700,74.764725 107.470428,78.489922 107.768509,83.111565 
M35.042896,82.832741 
	C35.487156,83.712265 35.811710,84.682137 36.395813,85.456123 
	C39.371647,89.399384 45.125191,90.389809 49.291477,87.743736 
	C53.236721,85.238045 54.605194,79.302414 52.241894,74.946548 
	C49.880325,70.593880 44.394978,68.833405 39.787060,71.142433 
	C35.284332,73.398750 34.182510,77.335861 35.042896,82.832741 
M70.379288,86.989784 
	C69.733376,82.595055 69.087463,78.200325 68.275627,72.676666 
	C71.203552,73.647774 72.766373,74.166115 74.649506,74.790695 
	C74.649506,73.332245 74.649506,71.985008 74.649506,70.670158 
	C61.208054,69.083084 59.073200,69.671173 59.859150,74.773941 
	C61.399113,74.213463 62.959743,73.645462 65.449715,72.739220 
	C65.128387,78.651291 64.854156,83.696793 64.544975,89.385345 
	C66.290375,88.921501 68.568810,88.316010 70.379288,86.989784 
z"/>
<path fill="#E7E7E8" opacity="1.000000" stroke="none" 
	d="
M251.000000,77.625000 
	C250.535278,77.744987 250.070557,77.489975 249.605820,77.234970 
	C248.379318,81.941742 244.614395,82.490585 239.770309,82.622566 
	C240.453262,84.734947 241.029648,86.517715 241.712585,88.630051 
	C239.523209,88.630051 237.206985,88.630051 235.485779,88.630051 
	C235.485779,82.914375 235.485779,77.185219 235.485779,71.113335 
	C240.834244,68.645630 245.715546,69.998039 250.786041,75.421577 
	C251.000000,75.750000 251.000000,76.500000 251.000000,77.625000 
M245.796738,77.256432 
	C245.994400,73.033546 243.315186,73.030869 240.299377,73.157867 
	C240.299377,75.573250 240.299377,77.627686 240.299377,80.624695 
	C242.448410,79.522064 243.957062,78.748001 245.796738,77.256432 
z"/>
<path fill="#FDFDFD" opacity="1.000000" stroke="none" 
	d="
M222.001999,54.998039 
	C218.554901,54.998039 215.590576,54.998039 212.597443,54.998039 
	C211.999725,52.498211 211.503952,50.424725 210.965179,48.171345 
	C208.097366,48.171345 205.306808,48.171345 202.054214,48.171345 
	C201.522461,50.200008 200.954529,52.366741 200.330338,54.748093 
	C193.661499,54.748093 187.050690,54.748093 180.016068,54.748093 
	C184.637695,39.058781 189.175095,23.463091 193.932816,7.934909 
	C194.251602,6.894497 196.214432,5.750229 197.453094,5.702351 
	C203.442566,5.470845 209.450806,5.470498 215.440262,5.702111 
	C216.686417,5.750300 218.664124,6.888938 218.982132,7.929309 
	C223.730652,23.463945 228.256805,39.066547 232.936737,54.998039 
	C229.133926,54.998039 225.809357,54.998039 222.001999,54.998039 
M205.522598,28.296215 
	C205.026779,30.965883 204.530960,33.635551 203.995972,36.516144 
	C205.853104,36.516144 207.224106,36.516144 208.979523,36.516144 
	C208.210312,32.647503 207.514542,29.148264 206.555679,24.325794 
	C206.036163,26.321253 205.875198,26.939499 205.522598,28.296215 
z"/>
<path fill="#FDFDFD" opacity="1.000000" stroke="none" 
	d="
M113.110077,54.997871 
	C110.474083,54.997871 108.318405,54.997871 105.939461,54.997871 
	C105.315681,52.649685 104.731133,50.449203 104.115448,48.131538 
	C101.168106,48.131538 98.376587,48.131538 95.200195,48.131538 
	C94.686897,50.264755 94.161674,52.447571 93.609718,54.741432 
	C92.902634,54.830482 92.257706,54.980240 91.612328,54.982269 
	C85.796089,55.000580 79.979767,54.992977 73.747421,54.992977 
	C73.947701,53.551159 73.968231,52.294266 74.307465,51.130253 
	C78.346054,37.272900 82.549858,23.462132 86.417595,9.557718 
	C87.313354,6.337486 88.759949,5.387659 91.937790,5.529079 
	C97.417244,5.772926 102.927864,5.394835 108.397346,5.732368 
	C109.856483,5.822413 112.088341,7.295589 112.484306,8.587661 
	C117.145134,23.796616 121.523911,39.092007 126.161636,54.997871 
	C121.727020,54.997871 117.658707,54.997871 113.110077,54.997871 
M97.750633,33.837845 
	C96.629982,38.619495 99.918861,36.230179 102.359077,36.916088 
	C101.454170,32.676029 100.709419,29.186392 99.964676,25.696754 
	C99.717758,25.736382 99.470848,25.776007 99.223938,25.815632 
	C98.774124,28.230804 98.324310,30.645975 97.750633,33.837845 
z"/>
<path fill="#FCFCFC" opacity="1.000000" stroke="none" 
	d="
M132.572876,18.757599 
	C141.522125,2.783964 163.153366,-0.428600 175.572266,12.479017 
	C172.932846,16.660561 170.230820,20.941278 167.434525,25.371346 
	C162.473495,22.635792 157.304886,19.349426 152.656235,24.064283 
	C150.675781,26.072933 149.941299,30.458742 150.431992,33.472626 
	C151.087112,37.496365 154.932465,38.689442 159.209641,38.820690 
	C159.410339,35.901737 159.588577,33.309464 159.784561,30.459015 
	C165.204620,30.459015 170.453674,30.459015 176.374893,30.459015 
	C176.374893,35.815540 176.644760,41.095657 176.212616,46.317684 
	C176.080658,47.912308 174.278275,49.695103 172.798599,50.798790 
	C163.239700,57.928783 148.986496,57.740658 139.731750,50.542480 
	C130.281830,43.192497 127.572052,31.625729 132.572876,18.757599 
z"/>
<path fill="#FCFCFC" opacity="1.000000" stroke="none" 
	d="
M70.884048,41.614525 
	C68.102043,51.056156 61.527462,55.843830 51.457973,55.982540 
	C43.034992,56.098579 35.363853,54.077450 28.989288,47.638142 
	C31.150969,44.198662 33.241051,40.873104 35.205803,37.746956 
	C38.827538,39.000748 42.163700,40.400341 45.635883,41.232044 
	C46.944931,41.545609 48.568855,40.544659 50.049236,40.142952 
	C49.020451,39.086029 48.157906,37.739349 46.927689,37.033508 
	C44.492218,35.636147 41.724510,34.807964 39.321373,33.365837 
	C29.047785,27.200634 28.819359,14.546716 38.778568,8.041812 
	C48.063824,1.977105 63.091259,4.043720 70.386818,12.583179 
	C68.419121,15.713648 66.404953,18.918028 64.261063,22.328806 
	C60.226818,21.237511 56.650627,17.008278 50.637043,21.207331 
	C54.139618,22.798517 56.676510,23.963545 59.223644,25.105738 
	C66.205727,28.236662 71.435219,32.634647 70.884048,41.614525 
z"/>
<path fill="#EDEDED" opacity="1.000000" stroke="none" 
	d="
M5.641905,86.723053 
	C7.167689,81.228134 7.683078,76.035179 5.025751,70.886559 
	C8.717566,69.313644 10.817982,70.718750 12.303425,74.194946 
	C13.451746,76.882225 15.079038,79.364830 16.480978,81.915840 
	C21.229467,78.879105 19.559980,69.144699 27.864162,70.369789 
	C27.864162,76.660706 27.864162,82.484695 27.864162,88.669678 
	C26.409237,88.669678 24.057585,88.669678 22.323004,88.669678 
	C22.980854,85.136116 23.648258,81.551231 24.315660,77.966347 
	C23.903255,77.826462 23.490850,77.686577 23.078447,77.546692 
	C21.206604,80.689735 19.334763,83.832771 16.834846,88.030418 
	C14.437836,84.043106 12.559838,80.919136 10.681840,77.795174 
	C10.338598,77.847618 9.995356,77.900063 9.652113,77.952499 
	C10.074368,81.466042 10.496622,84.979576 10.930853,88.592758 
	C6.489751,89.583557 6.297903,89.543388 5.641905,86.723053 
z"/>
<path fill="#E8E8E9" opacity="1.000000" stroke="none" 
	d="
M225.912216,70.295883 
	C226.959824,70.716179 228.145660,71.202118 228.103851,71.532890 
	C227.665909,74.997986 226.927216,78.424690 226.476303,81.888649 
	C225.844727,86.740486 223.340134,89.171196 218.717651,89.145370 
	C214.001984,89.119026 211.308716,86.359154 210.995392,81.294678 
	C210.785110,77.895760 210.514847,74.500549 210.243362,70.711906 
	C211.568008,70.711906 213.889954,70.711906 215.516998,70.711906 
	C215.247467,74.555740 214.581131,78.319878 214.925583,81.989136 
	C215.062134,83.443764 217.481644,85.779251 218.791443,85.732780 
	C220.214035,85.682304 222.551819,83.446419 222.730698,81.952713 
	C223.145721,78.487251 222.500656,74.894836 222.236038,70.543800 
	C222.485413,70.524254 223.982956,70.406876 225.912216,70.295883 
z"/>
<path fill="#F0F0F0" opacity="1.000000" stroke="none" 
	d="
M163.959351,78.150261 
	C163.487152,75.464508 163.014938,73.233780 162.420303,70.424629 
	C166.962585,70.722847 172.441147,68.481255 175.694733,73.412682 
	C176.845718,75.157219 175.060165,78.839188 174.615265,81.636635 
	C174.091812,81.631187 173.568375,81.625740 173.044922,81.620293 
	C174.925049,83.818039 176.805161,86.015778 178.685287,88.213524 
	C178.480423,88.621056 178.275574,89.028595 178.070709,89.436127 
	C176.347290,88.578568 174.361725,88.017349 172.969254,86.785652 
	C171.363068,85.364906 170.280212,83.352547 168.970093,81.597099 
	C168.421219,81.849579 167.872345,82.102051 167.323486,82.354523 
	C167.875931,84.417328 168.428391,86.480133 169.037521,88.754562 
	C166.868561,88.754562 164.612534,88.754562 162.878967,88.754562 
	C163.240067,85.362366 163.599701,81.983826 163.959351,78.150261 
M172.481018,74.145348 
	C170.921844,73.744713 169.362671,73.344086 167.586533,72.887711 
	C167.586533,75.415665 167.586533,77.135338 167.586533,79.075195 
	C170.906815,79.231483 173.613297,79.192368 172.481018,74.145348 
z"/>
<path fill="#EDEDED" opacity="1.000000" stroke="none" 
	d="
M189.997620,88.482811 
	C184.600494,84.935204 182.977463,79.966240 185.362213,75.177910 
	C187.374985,71.136490 192.282257,69.225716 196.807220,70.721527 
	C201.514114,72.277466 203.916794,76.557854 202.995529,81.746078 
	C202.009293,87.300316 197.625046,89.702576 189.997620,88.482811 
M197.341400,74.349136 
	C194.391830,72.562492 191.105194,72.401817 189.461609,75.439445 
	C188.306351,77.574524 188.148849,81.063622 189.116562,83.254204 
	C189.789902,84.778389 193.200684,85.990547 195.260895,85.817970 
	C199.548157,85.458847 200.623962,80.388794 197.341400,74.349136 
z"/>
<path fill="#EDEEEE" opacity="1.000000" stroke="none" 
	d="
M89.255424,70.203987 
	C96.605682,70.966164 100.240761,74.696899 99.716766,80.497490 
	C99.206268,86.148659 94.855644,89.651176 89.057343,89.078987 
	C84.680862,88.647110 81.425018,85.417564 80.955582,81.042656 
	C80.359146,75.484154 82.704277,72.281830 89.255424,70.203987 
M91.264481,86.061264 
	C96.000885,85.026382 96.940620,81.343826 95.634308,77.765656 
	C94.908897,75.778648 91.844330,73.647011 89.648300,73.425972 
	C86.224213,73.081314 84.495552,76.080513 84.461967,79.365578 
	C84.422455,83.231323 85.882088,86.159798 91.264481,86.061264 
z"/>
<path fill="#E9E9EA" opacity="1.000000" stroke="none" 
	d="
M149.900482,73.224960 
	C146.083130,73.202232 143.364059,74.738091 143.261154,78.191917 
	C143.191315,80.535423 144.141342,83.561646 145.760956,85.088364 
	C146.968460,86.226593 149.977402,85.453751 152.184097,85.531975 
	C151.490952,83.885048 150.797821,82.238113 149.838348,79.958351 
	C151.514282,79.881798 153.339828,79.798409 155.548676,79.697502 
	C155.457047,82.974808 157.795151,86.436821 153.462830,88.424713 
	C148.869492,90.532372 143.138397,88.855995 140.724442,84.817230 
	C138.249435,80.676315 138.815552,74.302124 142.852539,72.426743 
	C146.124771,70.906616 150.340988,71.188980 154.131760,71.234474 
	C154.784180,71.242302 155.402802,74.064812 154.988327,75.954338 
	C153.421799,75.053658 151.855270,74.152969 149.900482,73.224960 
z"/>
<path fill="#F0F0F1" opacity="1.000000" stroke="none" 
	d="
M107.768829,82.663345 
	C107.470428,78.489922 107.171700,74.764725 106.835030,70.566422 
	C110.717964,70.527618 115.991348,68.621124 119.210411,73.075874 
	C120.473961,74.824463 118.783485,78.707672 118.438309,81.618759 
	C117.904343,81.646126 117.370369,81.673500 116.836403,81.700867 
	C118.627495,83.787865 120.418579,85.874855 122.195793,87.945679 
	C118.573662,89.522705 118.588371,89.511894 116.464401,86.621567 
	C115.192886,84.891281 113.866722,83.201180 112.565117,81.493011 
	C112.017860,81.761223 111.470604,82.029442 110.923347,82.297653 
	C111.516174,84.356926 112.109001,86.416199 112.766190,88.699020 
	C110.611305,88.699020 108.320656,88.699020 106.077568,88.699020 
	C106.693695,86.663124 107.231102,84.887344 107.768829,82.663345 
M111.080193,75.677773 
	C111.749763,76.838165 112.268814,78.792496 113.127510,78.955292 
	C114.169655,79.152863 116.093178,78.095291 116.522949,77.100288 
	C116.894859,76.239250 115.911461,73.837975 115.171089,73.667946 
	C113.963036,73.390511 112.465210,74.374878 111.080193,75.677773 
z"/>
<path fill="#EFF0F0" opacity="1.000000" stroke="none" 
	d="
M34.974201,82.424919 
	C34.182510,77.335861 35.284332,73.398750 39.787060,71.142433 
	C44.394978,68.833405 49.880325,70.593880 52.241894,74.946548 
	C54.605194,79.302414 53.236721,85.238045 49.291477,87.743736 
	C45.125191,90.389809 39.371647,89.399384 36.395813,85.456123 
	C35.811710,84.682137 35.487156,83.712265 34.974201,82.424919 
M46.761353,85.644936 
	C50.232086,82.173653 51.264942,77.640755 48.308033,75.359741 
	C46.538368,73.994598 42.839764,73.410423 40.916119,74.344688 
	C37.556046,75.976578 37.423946,79.635078 38.900928,83.007828 
	C40.299210,86.200851 43.036949,86.407257 46.761353,85.644936 
z"/>
<path fill="#DFE0E1" opacity="1.000000" stroke="none" 
	d="
M70.613266,87.350143 
	C68.568810,88.316010 66.290375,88.921501 64.544975,89.385345 
	C64.854156,83.696793 65.128387,78.651291 65.449715,72.739220 
	C62.959743,73.645462 61.399113,74.213463 59.859150,74.773941 
	C59.073200,69.671173 61.208054,69.083084 74.649506,70.670158 
	C74.649506,71.985008 74.649506,73.332245 74.649506,74.790695 
	C72.766373,74.166115 71.203552,73.647774 68.275627,72.676666 
	C69.087463,78.200325 69.733376,82.595055 70.613266,87.350143 
z"/>
<path fill="#303337" opacity="1.000000" stroke="none" 
	d="
M245.631226,77.615189 
	C243.957062,78.748001 242.448410,79.522064 240.299377,80.624695 
	C240.299377,77.627686 240.299377,75.573250 240.299377,73.157867 
	C243.315186,73.030869 245.994400,73.033546 245.631226,77.615189 
z"/>
<path fill="#45484C" opacity="1.000000" stroke="none" 
	d="
M205.618408,27.926979 
	C205.875198,26.939499 206.036163,26.321253 206.555679,24.325794 
	C207.514542,29.148264 208.210312,32.647503 208.979523,36.516144 
	C207.224106,36.516144 205.853104,36.516144 203.995972,36.516144 
	C204.530960,33.635551 205.026779,30.965883 205.618408,27.926979 
z"/>
<path fill="#434649" opacity="1.000000" stroke="none" 
	d="
M97.812561,33.449493 
	C98.324310,30.645975 98.774124,28.230804 99.223938,25.815632 
	C99.470848,25.776007 99.717758,25.736382 99.964676,25.696754 
	C100.709419,29.186392 101.454170,32.676029 102.359077,36.916088 
	C99.918861,36.230179 96.629982,38.619495 97.812561,33.449493 
z"/>
<path fill="#3A3E41" opacity="1.000000" stroke="none" 
	d="
M172.694519,74.499313 
	C173.613297,79.192368 170.906815,79.231483 167.586533,79.075195 
	C167.586533,77.135338 167.586533,75.415665 167.586533,72.887711 
	C169.362671,73.344086 170.921844,73.744713 172.694519,74.499313 
z"/>
<path fill="#292D31" opacity="1.000000" stroke="none" 
	d="
M197.628998,74.640678 
	C200.623962,80.388794 199.548157,85.458847 195.260895,85.817970 
	C193.200684,85.990547 189.789902,84.778389 189.116562,83.254204 
	C188.148849,81.063622 188.306351,77.574524 189.461609,75.439445 
	C191.105194,72.401817 194.391830,72.562492 197.628998,74.640678 
z"/>
<path fill="#2B2E32" opacity="1.000000" stroke="none" 
	d="
M90.862549,86.084991 
	C85.882088,86.159798 84.422455,83.231323 84.461967,79.365578 
	C84.495552,76.080513 86.224213,73.081314 89.648300,73.425972 
	C91.844330,73.647011 94.908897,75.778648 95.634308,77.765656 
	C96.940620,81.343826 96.000885,85.026382 90.862549,86.084991 
z"/>
<path fill="#34383C" opacity="1.000000" stroke="none" 
	d="
M111.084915,75.252319 
	C112.465210,74.374878 113.963036,73.390511 115.171089,73.667946 
	C115.911461,73.837975 116.894859,76.239250 116.522949,77.100288 
	C116.093178,78.095291 114.169655,79.152863 113.127510,78.955292 
	C112.268814,78.792496 111.749763,76.838165 111.084915,75.252319 
z"/>
<path fill="#2A2E32" opacity="1.000000" stroke="none" 
	d="
M46.382763,85.782799 
	C43.036949,86.407257 40.299210,86.200851 38.900928,83.007828 
	C37.423946,79.635078 37.556046,75.976578 40.916119,74.344688 
	C42.839764,73.410423 46.538368,73.994598 48.308033,75.359741 
	C51.264942,77.640755 50.232086,82.173653 46.382763,85.782799 
z"/>
</svg>