<svg version="1.1" id="Layer_1" xmlns="http://www.w3.org/2000/svg" xmlns:xlink="http://www.w3.org/1999/xlink" x="0px" y="0px"
	 width="60px" viewBox="0 0 246 89" enable-background="new 0 0 246 89" xml:space="preserve">
<path fill="#FBFBFB" opacity="1.000000" stroke="none" 
	d="
M247.000000,79.000000 
	C247.000000,82.664238 247.000000,86.328476 247.000000,89.994537 
	C165.056732,89.996353 83.113457,89.996353 1.085094,89.996353 
	C1.085094,60.409924 1.085094,30.819525 1.085094,1.114562 
	C82.999908,1.114562 164.999924,1.114562 246.999969,1.111102 
	C247.000000,23.759323 247.000000,46.411003 246.634308,69.424515 
	C242.128647,67.580887 237.918045,68.118477 234.466125,68.571022 
	C234.466125,75.167076 234.466125,80.872154 234.466125,86.745171 
	C236.081924,86.745171 238.449905,86.745171 240.815094,86.745171 
	C240.059875,84.686684 239.395096,82.874718 238.762329,81.149986 
	C241.948532,80.318405 244.474274,79.659203 247.000000,79.000000 
M184.295456,32.836906 
	C182.420975,39.436256 180.546494,46.035606 178.613190,52.842049 
	C185.807159,52.842049 192.279419,52.842049 198.826080,52.842049 
	C199.399567,50.518353 199.940872,48.325039 200.450195,46.261375 
	C203.709335,46.261375 206.641586,46.261375 209.506989,46.261375 
	C210.069916,48.628983 210.563248,50.703930 211.041458,52.715210 
	C217.814713,52.715210 224.373688,52.715210 231.319763,52.715210 
	C226.716583,36.901997 222.273239,21.436323 217.605667,6.038608 
	C217.280533,4.966033 215.317459,3.754955 214.071579,3.704392 
	C208.083054,3.461355 202.068207,3.400113 196.088974,3.738402 
	C194.675735,3.818358 192.572372,5.434165 192.134720,6.781429 
	C189.416107,15.150547 187.081619,23.644436 184.295456,32.836906 
M72.997047,48.608078 
	C72.671967,49.972191 72.346886,51.336304 71.978935,52.880310 
	C78.869926,52.880310 85.333466,52.880310 92.041313,52.880310 
	C92.598923,50.626068 93.142975,48.426628 93.699783,46.175610 
	C96.877892,46.175610 99.816643,46.175610 102.706108,46.175610 
	C103.297356,48.562141 103.837120,50.740845 104.356491,52.837227 
	C111.173538,52.837227 117.618591,52.837227 124.366417,52.837227 
	C124.028847,51.350159 123.803757,50.061852 123.442352,48.812988 
	C120.264259,37.830673 117.057373,26.856693 113.867905,15.877665 
	C110.300117,3.596400 110.304153,3.595227 97.203201,3.595228 
	C95.208534,3.595228 93.188087,3.799348 91.224739,3.551393 
	C87.502213,3.081270 85.800835,4.279483 84.747482,8.205438 
	C81.184753,21.484035 77.067108,34.613743 72.997047,48.608078 
M130.740845,17.472843 
	C126.139603,29.918840 128.803024,41.104393 138.124832,48.483265 
	C147.101013,55.588543 161.108505,55.963013 170.771347,49.170654 
	C172.428162,48.006020 174.610458,46.217602 174.770035,44.547287 
	C175.282440,39.183941 174.960617,33.740894 174.960617,28.407728 
	C168.937561,28.407728 163.663940,28.407728 157.858795,28.407728 
	C157.858795,31.328030 157.858795,34.027805 157.858795,36.767910 
	C151.896973,36.113350 149.066437,34.730255 148.726852,30.846546 
	C148.470428,27.913820 149.243729,23.837294 151.190186,21.975235 
	C155.893921,17.475452 160.997665,20.585178 165.928604,23.418007 
	C168.757172,18.926350 171.459122,14.635745 174.114441,10.419193 
	C161.130524,-2.498639 140.139755,0.754653 130.740845,17.472843 
M47.136070,39.378963 
	C42.790291,38.332642 38.444508,37.286320 33.690094,36.141613 
	C31.951660,38.893677 29.854303,42.213940 27.815622,45.441315 
	C35.823738,53.715027 50.095009,56.515953 59.879696,51.846134 
	C61.796265,50.931435 63.652885,49.669491 65.179420,48.196873 
	C72.482780,41.151482 70.938171,30.487823 61.777004,25.128847 
	C58.188213,23.029528 54.311234,21.422882 49.610519,19.125034 
	C55.366848,15.128000 58.867878,18.996574 62.918026,20.426804 
	C65.039574,17.072592 67.141731,13.749049 69.199875,10.495082 
	C61.349110,2.088096 47.157639,0.052145 37.909134,5.800719 
	C27.528027,12.253284 27.547487,25.101803 38.052040,31.360317 
	C40.738697,32.961002 43.789276,33.939209 46.603573,35.341991 
	C48.110081,36.092907 50.518913,36.772789 47.136070,39.378963 
M27.765223,86.554184 
	C25.081850,80.753296 24.956123,74.937859 27.901285,68.519012 
	C18.600079,67.097046 20.205793,77.022240 15.509907,79.875916 
	C8.373788,67.315521 8.373788,67.315521 4.282320,69.302994 
	C6.557158,75.111603 6.606407,80.756409 3.852924,86.723328 
	C6.308283,86.723328 8.621284,86.723328 10.001022,86.723328 
	C9.507639,82.989525 9.037714,79.433243 8.567789,75.876961 
	C8.911809,75.796822 9.255830,75.716675 9.599850,75.636536 
	C11.523600,78.846848 13.447350,82.057167 15.869110,86.098557 
	C18.421988,81.749069 20.270971,78.598839 22.119955,75.448616 
	C22.528978,75.599724 22.938002,75.750832 23.347025,75.901939 
	C22.659319,79.508171 21.971615,83.114410 21.241941,86.940712 
	C22.767086,86.940712 24.893057,86.940712 27.765223,86.554184 
M221.851242,80.785370 
	C220.062820,81.827202 218.335678,83.431610 216.456055,83.636368 
	C215.694962,83.719276 213.884903,80.783020 213.807907,79.161018 
	C213.647293,75.777184 214.322449,72.353683 214.664139,68.844681 
	C212.918945,68.844681 210.517334,68.844681 209.056549,68.844681 
	C209.400620,72.595139 209.780975,75.835526 209.977173,79.087029 
	C210.288467,84.246376 212.861160,87.053589 217.546356,87.152008 
	C222.396942,87.253899 225.025391,84.733482 225.485352,79.523865 
	C225.802414,75.932846 226.105270,72.340576 226.409561,68.805885 
	C224.583740,68.805885 222.305862,68.805885 221.288940,68.805885 
	C221.525238,72.846001 221.732071,76.382027 221.851242,80.785370 
M168.088501,68.323700 
	C165.736725,68.323700 163.384964,68.323700 160.973648,68.323700 
	C163.918335,75.065636 163.846695,80.840668 161.126038,86.650528 
	C163.491684,86.650528 165.836304,86.650528 167.847641,86.650528 
	C167.310211,84.353714 166.831207,82.306541 166.352203,80.259377 
	C166.962906,80.019882 167.573608,79.780388 168.184311,79.540894 
	C169.441269,81.349243 170.442642,83.440063 172.033417,84.879517 
	C173.386124,86.103539 175.418198,86.576767 177.149704,87.382179 
	C177.318069,86.994301 177.486450,86.606422 177.654816,86.218544 
	C175.783279,84.011169 173.911758,81.803795 172.903549,80.614670 
	C173.876740,77.186188 175.646652,74.338455 174.975357,72.291222 
	C174.392090,70.512512 171.047485,69.639267 168.088501,68.323700 
M189.541428,68.795105 
	C184.548553,70.652779 182.821625,74.466072 183.540771,79.434471 
	C184.149124,83.637199 186.699081,86.333672 190.968658,87.003387 
	C194.834747,87.609802 198.976929,86.910942 200.351135,83.157326 
	C201.525879,79.948524 201.713776,75.593117 200.478348,72.483833 
	C198.893478,68.495079 194.627777,67.473976 189.541428,68.795105 
M94.107613,86.002548 
	C98.642426,82.189865 99.885201,77.912292 97.773895,73.383308 
	C96.008858,69.597084 91.605522,67.462860 87.394005,68.352364 
	C81.964363,69.499138 78.873199,74.405922 80.046494,80.015442 
	C81.245880,85.749687 86.315979,88.145569 94.107613,86.002548 
M154.904861,81.371353 
	C154.408356,77.060188 153.150009,76.577652 149.237869,78.707336 
	C149.949326,80.268845 150.636169,81.776344 151.323013,83.283836 
	C149.286240,83.439163 147.039886,84.184875 145.280014,83.560165 
	C143.909866,83.073784 142.195190,80.795189 142.315491,79.465202 
	C142.544739,76.930298 143.365204,73.096748 145.050964,72.366508 
	C147.503265,71.304214 150.938309,72.510559 154.519379,72.794327 
	C154.411377,72.323662 154.104935,69.458687 153.695953,69.443977 
	C149.886185,69.306908 145.732346,68.803467 142.325089,70.102661 
	C138.657913,71.500977 137.814682,75.585960 138.527405,79.504051 
	C139.290619,83.699783 141.785431,86.341682 146.052567,87.036835 
	C151.551041,87.932556 154.207031,86.444504 154.904861,81.371353 
M106.767235,75.709793 
	C106.460648,79.321213 106.154060,82.932640 105.837547,86.661003 
	C107.338539,86.661003 109.646194,86.661003 111.678726,86.661003 
	C111.057404,84.368736 110.498886,82.308151 109.817101,79.792801 
	C115.373146,80.251564 114.702759,89.401482 121.446800,86.279297 
	C119.393295,83.801376 117.569984,81.601219 115.746674,79.401070 
	C116.325119,79.354202 116.903572,79.307327 117.482025,79.260460 
	C117.908463,76.593102 119.123108,73.744453 118.561890,71.304245 
	C117.859795,68.251511 111.144142,67.450012 105.186111,69.087631 
	C105.714912,71.002693 106.241058,72.908180 106.767235,75.709793 
M33.744377,76.712440 
	C34.047443,83.524185 36.829502,86.856148 42.429100,87.113823 
	C47.730133,87.357758 51.526840,84.357948 52.221680,79.376610 
	C52.985966,73.897415 50.304649,69.701019 45.239819,68.449646 
	C39.916626,67.134438 35.743122,69.854408 33.744377,76.712440 
M64.210487,81.991646 
	C63.659187,83.540428 63.107887,85.089211 62.542007,86.678955 
	C65.150558,86.678955 67.498161,86.678955 70.255013,86.678955 
	C66.368843,81.713608 68.671204,76.569695 67.794060,70.776787 
	C70.176102,71.652824 71.724907,72.222420 73.705750,72.950912 
	C73.781349,71.440201 73.849724,70.074028 73.940979,68.250488 
	C69.570404,68.250488 65.601990,68.369308 61.643978,68.217255 
	C57.643585,68.063583 57.875298,70.075188 58.733612,72.868622 
	C60.528049,72.209312 62.052979,71.649025 64.212296,70.855644 
	C64.212296,74.830185 64.212296,77.964928 64.210487,81.991646 
z"/>
<path fill="#1B1B1B" opacity="1.000000" stroke="none" 
	d="
M247.000000,78.550018 
	C244.474274,79.659203 241.948532,80.318405 238.762329,81.149986 
	C239.395096,82.874718 240.059875,84.686684 240.815094,86.745171 
	C238.449905,86.745171 236.081924,86.745171 234.466125,86.745171 
	C234.466125,80.872154 234.466125,75.167076 234.466125,68.571022 
	C237.918045,68.118477 242.128647,67.580887 246.634308,69.893173 
	C247.000000,72.700012 247.000000,75.400032 247.000000,78.550018 
M244.466309,75.980560 
	C244.583664,71.373833 244.136368,71.008865 239.182861,71.677666 
	C239.182861,73.632896 239.182861,75.588127 239.182861,78.139099 
	C241.033554,77.563507 242.528030,77.098701 244.466309,75.980560 
z"/>
<path fill="#020202" opacity="1.000000" stroke="none" 
	d="
M184.457581,32.466919 
	C187.081619,23.644436 189.416107,15.150547 192.134720,6.781429 
	C192.572372,5.434165 194.675735,3.818358 196.088974,3.738402 
	C202.068207,3.400113 208.083054,3.461355 214.071579,3.704392 
	C215.317459,3.754955 217.280533,4.966033 217.605667,6.038608 
	C222.273239,21.436323 226.716583,36.901997 231.319763,52.715210 
	C224.373688,52.715210 217.814713,52.715210 211.041458,52.715210 
	C210.563248,50.703930 210.069916,48.628983 209.506989,46.261375 
	C206.641586,46.261375 203.709335,46.261375 200.450195,46.261375 
	C199.940872,48.325039 199.399567,50.518353 198.826080,52.842049 
	C192.279419,52.842049 185.807159,52.842049 178.613190,52.842049 
	C180.546494,46.035606 182.420975,39.436256 184.457581,32.466919 
M205.942520,26.173378 
	C205.689957,25.462702 205.437408,24.752026 205.184860,24.041349 
	C204.917740,24.063202 204.650620,24.085054 204.383514,24.106909 
	C203.803055,27.539440 203.222610,30.971973 202.622635,34.520012 
	C204.450043,34.520012 205.678589,34.520012 207.358597,34.520012 
	C206.876190,31.750578 206.454742,29.331182 205.942520,26.173378 
z"/>
<path fill="#020202" opacity="1.000000" stroke="none" 
	d="
M73.079308,48.204220 
	C77.067108,34.613743 81.184753,21.484035 84.747482,8.205438 
	C85.800835,4.279483 87.502213,3.081270 91.224739,3.551393 
	C93.188087,3.799348 95.208534,3.595228 97.203201,3.595228 
	C110.304153,3.595227 110.300117,3.596400 113.867905,15.877665 
	C117.057373,26.856693 120.264259,37.830673 123.442352,48.812988 
	C123.803757,50.061852 124.028847,51.350159 124.366417,52.837227 
	C117.618591,52.837227 111.173538,52.837227 104.356491,52.837227 
	C103.837120,50.740845 103.297356,48.562141 102.706108,46.175610 
	C99.816643,46.175610 96.877892,46.175610 93.699783,46.175610 
	C93.142975,48.426628 92.598923,50.626068 92.041313,52.880310 
	C85.333466,52.880310 78.869926,52.880310 71.978935,52.880310 
	C72.346886,51.336304 72.671967,49.972191 73.079308,48.204220 
M99.749352,34.685101 
	C99.512680,31.079815 99.276016,27.474529 99.039352,23.869242 
	C97.250290,26.719145 96.407959,29.542156 96.165466,32.415783 
	C96.105110,33.131020 97.982681,34.009789 99.749352,34.685101 
z"/>
<path fill="#040404" opacity="1.000000" stroke="none" 
	d="
M130.891022,17.121780 
	C140.139755,0.754653 161.130524,-2.498639 174.114441,10.419193 
	C171.459122,14.635745 168.757172,18.926350 165.928604,23.418007 
	C160.997665,20.585178 155.893921,17.475452 151.190186,21.975235 
	C149.243729,23.837294 148.470428,27.913820 148.726852,30.846546 
	C149.066437,34.730255 151.896973,36.113350 157.858795,36.767910 
	C157.858795,34.027805 157.858795,31.328030 157.858795,28.407728 
	C163.663940,28.407728 168.937561,28.407728 174.960617,28.407728 
	C174.960617,33.740894 175.282440,39.183941 174.770035,44.547287 
	C174.610458,46.217602 172.428162,48.006020 170.771347,49.170654 
	C161.108505,55.963013 147.101013,55.588543 138.124832,48.483265 
	C128.803024,41.104393 126.139603,29.918840 130.891022,17.121780 
z"/>
<path fill="#040404" opacity="1.000000" stroke="none" 
	d="
M47.534992,39.231998 
	C50.518913,36.772789 48.110081,36.092907 46.603573,35.341991 
	C43.789276,33.939209 40.738697,32.961002 38.052040,31.360317 
	C27.547487,25.101803 27.528027,12.253284 37.909134,5.800719 
	C47.157639,0.052145 61.349110,2.088096 69.199875,10.495082 
	C67.141731,13.749049 65.039574,17.072592 62.918026,20.426804 
	C58.867878,18.996574 55.366848,15.128000 49.610519,19.125034 
	C54.311234,21.422882 58.188213,23.029528 61.777004,25.128847 
	C70.938171,30.487823 72.482780,41.151482 65.179420,48.196873 
	C63.652885,49.669491 61.796265,50.931435 59.879696,51.846134 
	C50.095009,56.515953 35.823738,53.715027 27.815622,45.441315 
	C29.854303,42.213940 31.951660,38.893677 33.690094,36.141613 
	C38.444508,37.286320 42.790291,38.332642 47.534992,39.231998 
z"/>
<path fill="#151515" opacity="1.000000" stroke="none" 
	d="
M27.392124,86.747452 
	C24.893057,86.940712 22.767086,86.940712 21.241941,86.940712 
	C21.971615,83.114410 22.659319,79.508171 23.347025,75.901939 
	C22.938002,75.750832 22.528978,75.599724 22.119955,75.448616 
	C20.270971,78.598839 18.421988,81.749069 15.869110,86.098557 
	C13.447350,82.057167 11.523600,78.846848 9.599850,75.636536 
	C9.255830,75.716675 8.911809,75.796822 8.567789,75.876961 
	C9.037714,79.433243 9.507639,82.989525 10.001022,86.723328 
	C8.621284,86.723328 6.308283,86.723328 3.852924,86.723328 
	C6.606407,80.756409 6.557158,75.111603 4.282320,69.302994 
	C8.373788,67.315521 8.373788,67.315521 15.509907,79.875916 
	C20.205793,77.022240 18.600079,67.097046 27.901285,68.519012 
	C24.956123,74.937859 25.081850,80.753296 27.392124,86.747452 
z"/>
<path fill="#1A1A1A" opacity="1.000000" stroke="none" 
	d="
M221.895065,80.351715 
	C221.732071,76.382027 221.525238,72.846001 221.288940,68.805885 
	C222.305862,68.805885 224.583740,68.805885 226.409561,68.805885 
	C226.105270,72.340576 225.802414,75.932846 225.485352,79.523865 
	C225.025391,84.733482 222.396942,87.253899 217.546356,87.152008 
	C212.861160,87.053589 210.288467,84.246376 209.977173,79.087029 
	C209.780975,75.835526 209.400620,72.595139 209.056549,68.844681 
	C210.517334,68.844681 212.918945,68.844681 214.664139,68.844681 
	C214.322449,72.353683 213.647293,75.777184 213.807907,79.161018 
	C213.884903,80.783020 215.694962,83.719276 216.456055,83.636368 
	C218.335678,83.431610 220.062820,81.827202 221.895065,80.351715 
z"/>
<path fill="#111111" opacity="1.000000" stroke="none" 
	d="
M168.505844,68.344788 
	C171.047485,69.639267 174.392090,70.512512 174.975357,72.291222 
	C175.646652,74.338455 173.876740,77.186188 172.903549,80.614670 
	C173.911758,81.803795 175.783279,84.011169 177.654816,86.218544 
	C177.486450,86.606422 177.318069,86.994301 177.149704,87.382179 
	C175.418198,86.576767 173.386124,86.103539 172.033417,84.879517 
	C170.442642,83.440063 169.441269,81.349243 168.184311,79.540894 
	C167.573608,79.780388 166.962906,80.019882 166.352203,80.259377 
	C166.831207,82.306541 167.310211,84.353714 167.847641,86.650528 
	C165.836304,86.650528 163.491684,86.650528 161.126038,86.650528 
	C163.846695,80.840668 163.918335,75.065636 160.973648,68.323700 
	C163.384964,68.323700 165.736725,68.323700 168.505844,68.344788 
M168.468872,77.189651 
	C169.668610,75.997581 170.868362,74.805511 172.068100,73.613441 
	C170.489563,72.563225 168.911011,71.513008 167.332474,70.462791 
	C166.858292,70.881905 166.384125,71.301010 165.909958,71.720116 
	C166.481506,73.535492 167.053070,75.350876 168.468872,77.189651 
z"/>
<path fill="#151515" opacity="1.000000" stroke="none" 
	d="
M189.911041,68.665253 
	C194.627777,67.473976 198.893478,68.495079 200.478348,72.483833 
	C201.713776,75.593117 201.525879,79.948524 200.351135,83.157326 
	C198.976929,86.910942 194.834747,87.609802 190.968658,87.003387 
	C186.699081,86.333672 184.149124,83.637199 183.540771,79.434471 
	C182.821625,74.466072 184.548553,70.652779 189.911041,68.665253 
M195.636520,71.945709 
	C193.141159,72.464958 189.581253,72.184563 188.431808,73.714790 
	C187.124557,75.455101 187.159439,79.189781 188.157654,81.339249 
	C188.858170,82.847733 192.236710,84.027000 194.263046,83.820404 
	C198.887405,83.348915 199.826645,77.439255 195.636520,71.945709 
z"/>
<path fill="#141414" opacity="1.000000" stroke="none" 
	d="
M93.735909,86.155640 
	C86.315979,88.145569 81.245880,85.749687 80.046494,80.015442 
	C78.873199,74.405922 81.964363,69.499138 87.394005,68.352364 
	C91.605522,67.462860 96.008858,69.597084 97.773895,73.383308 
	C99.885201,77.912292 98.642426,82.189865 93.735909,86.155640 
M85.825539,72.254517 
	C82.202744,77.153351 83.016747,83.140816 87.629105,83.809731 
	C89.571533,84.091431 93.038071,83.195572 93.562759,81.914131 
	C94.553352,79.494850 94.851685,75.864906 93.641113,73.782578 
	C92.767235,72.279381 88.986740,72.465927 85.825539,72.254517 
z"/>
<path fill="#191919" opacity="1.000000" stroke="none" 
	d="
M154.904816,81.807854 
	C154.207031,86.444504 151.551041,87.932556 146.052567,87.036835 
	C141.785431,86.341682 139.290619,83.699783 138.527405,79.504051 
	C137.814682,75.585960 138.657913,71.500977 142.325089,70.102661 
	C145.732346,68.803467 149.886185,69.306908 153.695953,69.443977 
	C154.104935,69.458687 154.411377,72.323662 154.519379,72.794327 
	C150.938309,72.510559 147.503265,71.304214 145.050964,72.366508 
	C143.365204,73.096748 142.544739,76.930298 142.315491,79.465202 
	C142.195190,80.795189 143.909866,83.073784 145.280014,83.560165 
	C147.039886,84.184875 149.286240,83.439163 151.323013,83.283844 
	C150.636169,81.776344 149.949326,80.268845 149.237869,78.707336 
	C153.150009,76.577652 154.408356,77.060188 154.904816,81.807854 
z"/>
<path fill="#111111" opacity="1.000000" stroke="none" 
	d="
M106.767227,75.261734 
	C106.241058,72.908180 105.714912,71.002693 105.186111,69.087631 
	C111.144142,67.450012 117.859795,68.251511 118.561890,71.304245 
	C119.123108,73.744453 117.908463,76.593102 117.482025,79.260460 
	C116.903572,79.307327 116.325119,79.354202 115.746674,79.401070 
	C117.569984,81.601219 119.393295,83.801376 121.446800,86.279297 
	C114.702759,89.401482 115.373146,80.251564 109.817101,79.792801 
	C110.498886,82.308151 111.057404,84.368736 111.678726,86.661003 
	C109.646194,86.661003 107.338539,86.661003 105.837547,86.661003 
	C106.154060,82.932640 106.460648,79.321213 106.767227,75.261734 
M115.214401,72.219742 
	C113.644592,71.768295 112.074776,71.316849 110.307579,70.808632 
	C110.307579,73.388985 110.307579,75.145821 110.307579,77.015411 
	C113.561928,77.235672 116.399529,77.327782 115.214401,72.219742 
z"/>
<path fill="#121212" opacity="1.000000" stroke="none" 
	d="
M33.791592,76.296204 
	C35.743122,69.854408 39.916626,67.134438 45.239819,68.449646 
	C50.304649,69.701019 52.985966,73.897415 52.221680,79.376610 
	C51.526840,84.357948 47.730133,87.357758 42.429100,87.113823 
	C36.829502,86.856148 34.047443,83.524185 33.791592,76.296204 
M37.108593,77.546989 
	C37.301277,80.762222 38.274982,83.467499 41.929211,84.033112 
	C45.670074,84.612160 48.101250,82.894814 48.720192,79.220276 
	C49.319897,75.659897 48.454422,72.368958 44.465725,71.417130 
	C40.248844,70.410858 37.954308,72.738312 37.108593,77.546989 
z"/>
<path fill="#242424" opacity="1.000000" stroke="none" 
	d="
M64.211395,81.545654 
	C64.212296,77.964928 64.212296,74.830185 64.212296,70.855644 
	C62.052979,71.649025 60.528049,72.209312 58.733612,72.868622 
	C57.875298,70.075188 57.643585,68.063583 61.643978,68.217255 
	C65.601990,68.369308 69.570404,68.250488 73.940979,68.250488 
	C73.849724,70.074028 73.781349,71.440201 73.705750,72.950912 
	C71.724907,72.222420 70.176102,71.652824 67.794060,70.776787 
	C68.671204,76.569695 66.368843,81.713608 70.255013,86.678955 
	C67.498161,86.678955 65.150558,86.678955 62.542007,86.678955 
	C63.107887,85.089211 63.659187,83.540428 64.211395,81.545654 
z"/>
<path fill="#EEEEEE" opacity="1.000000" stroke="none" 
	d="
M244.244415,76.307220 
	C242.528030,77.098701 241.033554,77.563507 239.182861,78.139099 
	C239.182861,75.588127 239.182861,73.632896 239.182892,71.673645 
	C244.136368,71.008865 244.583664,71.373833 244.244415,76.307220 
z"/>
<path fill="#DBDBDB" opacity="1.000000" stroke="none" 
	d="
M205.987915,26.542583 
	C206.454742,29.331182 206.876190,31.750578 207.358597,34.520012 
	C205.678589,34.520012 204.450043,34.520012 202.622635,34.520012 
	C203.222610,30.971973 203.803055,27.539440 204.383514,24.106909 
	C204.650620,24.085054 204.917740,24.063202 205.184860,24.041349 
	C205.437408,24.752026 205.689957,25.462702 205.987915,26.542583 
z"/>
<path fill="#D5D5D5" opacity="1.000000" stroke="none" 
	d="
M99.359428,34.749245 
	C97.982681,34.009789 96.105110,33.131020 96.165466,32.415783 
	C96.407959,29.542156 97.250290,26.719145 99.039352,23.869242 
	C99.276016,27.474529 99.512680,31.079815 99.359428,34.749245 
z"/>
<path fill="#E2E2E2" opacity="1.000000" stroke="none" 
	d="
M168.046753,77.177948 
	C167.053070,75.350876 166.481506,73.535492 165.909958,71.720116 
	C166.384125,71.301010 166.858292,70.881905 167.332474,70.462791 
	C168.911011,71.513008 170.489563,72.563225 172.068100,73.613441 
	C170.868362,74.805511 169.668610,75.997581 168.046753,77.177948 
z"/>
<path fill="#F6F6F6" opacity="1.000000" stroke="none" 
	d="
M195.990295,72.143234 
	C199.826645,77.439255 198.887405,83.348915 194.263046,83.820404 
	C192.236710,84.027000 188.858170,82.847733 188.157654,81.339249 
	C187.159439,79.189781 187.124557,75.455101 188.431808,73.714790 
	C189.581253,72.184563 193.141159,72.464958 195.990295,72.143234 
z"/>
<path fill="#F4F4F4" opacity="1.000000" stroke="none" 
	d="
M86.164070,72.076675 
	C88.986740,72.465927 92.767235,72.279381 93.641113,73.782578 
	C94.851685,75.864906 94.553352,79.494850 93.562759,81.914131 
	C93.038071,83.195572 89.571533,84.091431 87.629105,83.809731 
	C83.016747,83.140816 82.202744,77.153351 86.164070,72.076675 
z"/>
<path fill="#E8E8E8" opacity="1.000000" stroke="none" 
	d="
M115.457359,72.548843 
	C116.399529,77.327782 113.561928,77.235672 110.307579,77.015411 
	C110.307579,75.145821 110.307579,73.388985 110.307579,70.808632 
	C112.074776,71.316849 113.644592,71.768295 115.457359,72.548843 
z"/>
<path fill="#F4F4F4" opacity="1.000000" stroke="none" 
	d="
M37.128975,77.155151 
	C37.954308,72.738312 40.248844,70.410858 44.465725,71.417130 
	C48.454422,72.368958 49.319897,75.659897 48.720192,79.220276 
	C48.101250,82.894814 45.670074,84.612160 41.929211,84.033112 
	C38.274982,83.467499 37.301277,80.762222 37.128975,77.155151 
z"/>
</svg>